# 
# Wavefront OBJ file
# Created with Autodesk FBX SDK
# 
mtllib corner_2.mtl

g Corner_2
v 0.000000 0.000000 0.000000
v 4.000000 0.000000 0.000000
v 4.000000 1.000000 0.000000
v 0.000000 1.000000 0.000000
v 1.000000 1.000000 -4.000000
v 0.000000 1.000000 -4.000000
v 0.000000 1.000000 0.000000
v 4.000000 1.000000 0.000000
v 4.000000 1.000000 -1.000000
v 1.000000 1.000000 -1.000000
v 0.000000 0.000000 -4.000000
v 1.000000 0.000000 -4.000000
v 1.000000 0.000000 -1.000000
v 4.000000 0.000000 -1.000000
v 4.000000 0.000000 0.000000
v 0.000000 0.000000 0.000000
v 0.000000 1.000000 0.000000
v 0.000000 1.000000 -4.000000
v 0.000000 0.000000 -4.000000
v 0.000000 0.000000 0.000000
v 1.000000 1.000000 -4.000000
v 1.000000 1.000000 -1.000000
v 1.000000 0.000000 -1.000000
v 1.000000 0.000000 -4.000000
v 4.000000 0.000000 -1.000000
v 1.000000 0.000000 -1.000000
v 1.000000 1.000000 -1.000000
v 4.000000 1.000000 -1.000000
v 4.000000 0.000000 -1.000000
v 4.000000 1.000000 -1.000000
v 4.000000 1.000000 0.000000
v 4.000000 0.000000 0.000000
v 1.000000 1.000000 -4.000000
v 1.000000 0.000000 -4.000000
v 0.000000 0.000000 -4.000000
v 0.000000 1.000000 -4.000000
vt 0.500482 0.125116
vt 0.875110 0.000000
vt 0.000018 0.125189
vt 0.249763 0.000036
vt 0.249772 0.125152
vt 0.750237 0.125116
vt 0.374889 0.125143
vt 0.374880 0.000027
vt 1.000473 0.999855
vt 0.499991 0.874811
vt 0.625107 0.874793
vt 0.625125 0.999909
vt 0.500009 0.999927
vt 0.375138 0.000007
vt 0.375140 0.125000
vt 0.750119 0.124995
vt 0.750124 0.499973
vt 0.000000 0.000073
vt 0.875117 0.499972
vt 0.500464 -0.000000
vt 0.499904 1.000227
vt 0.624909 1.000243
vt 0.499952 0.625212
vt 0.124937 0.625164
vt 0.124953 0.500159
vt 0.624973 0.500223
vt 0.750228 0.000000
vt 1.000455 0.874739
vt -0.000473 0.874884
vt -0.000455 1.000000
vn 0.000000 0.000000 1.000000
vn 0.000000 0.000000 1.000000
vn 0.000000 0.000000 1.000000
vn 0.000000 0.000000 1.000000
vn 0.000000 1.000000 0.000000
vn 0.000000 1.000000 0.000000
vn 0.000000 1.000000 0.000000
vn 0.000000 1.000000 0.000000
vn 0.000000 1.000000 0.000000
vn 0.000000 1.000000 0.000000
vn 0.000000 -1.000000 0.000000
vn 0.000000 -1.000000 0.000000
vn 0.000000 -1.000000 0.000000
vn 0.000000 -1.000000 0.000000
vn 0.000000 -1.000000 0.000000
vn 0.000000 -1.000000 0.000000
vn -1.000000 0.000000 0.000000
vn -1.000000 0.000000 0.000000
vn -1.000000 0.000000 0.000000
vn -1.000000 0.000000 0.000000
vn 1.000000 0.000000 0.000000
vn 1.000000 0.000000 0.000000
vn 1.000000 0.000000 0.000000
vn 1.000000 0.000000 0.000000
vn 0.000000 0.000000 -1.000000
vn 0.000000 0.000000 -1.000000
vn 0.000000 0.000000 -1.000000
vn 0.000000 0.000000 -1.000000
vn 1.000000 0.000000 0.000000
vn 1.000000 0.000000 0.000000
vn 1.000000 0.000000 0.000000
vn 1.000000 0.000000 0.000000
vn 0.000000 0.000000 -1.000000
vn 0.000000 0.000000 -1.000000
vn 0.000000 0.000000 -1.000000
vn 0.000000 0.000000 -1.000000
usemtl Tex_Checkered
f 3/18/3 4/20/4 1/1/1
f 3/18/3 1/1/1 2/3/2
f 9/17/9 10/16/10 8/19/8
f 6/14/6 7/2/7 10/16/10
f 10/16/10 5/15/5 6/14/6
f 7/2/7 8/19/8 10/16/10
f 13/23/13 15/25/15 16/26/16
f 11/22/11 13/23/13 16/26/16
f 13/23/13 11/22/11 12/21/12
f 15/25/15 13/23/13 14/24/14
f 19/13/19 20/30/20 17/29/17
f 17/29/17 18/10/18 19/13/19
f 23/9/23 21/11/21 22/28/22
f 21/11/21 23/9/23 24/12/24
f 25/8/25 26/27/26 27/6/27
f 25/8/25 27/6/27 28/7/28
f 31/5/31 32/4/32 29/8/29
f 31/5/31 29/8/29 30/7/30
f 35/13/35 33/11/33 34/12/34
f 33/11/33 35/13/35 36/10/36
