# 
# Wavefront OBJ file
# Created with Autodesk FBX SDK
# 
mtllib corner_1.mtl

g Corner_1
v 0.000000 0.000000 0.000000
v 5.000000 0.000000 0.000000
v 5.000000 1.000000 0.000000
v 0.000000 1.000000 0.000000
v 5.000000 0.000000 0.000000
v 5.000000 0.000000 -1.000000
v 5.000000 1.000000 -1.000000
v 5.000000 1.000000 0.000000
v 1.000000 1.000000 -5.000000
v 0.000000 1.000000 -5.000000
v 0.000000 1.000000 0.000000
v 5.000000 1.000000 0.000000
v 5.000000 1.000000 -1.000000
v 1.000000 1.000000 -1.000000
v 0.000000 0.000000 -5.000000
v 1.000000 0.000000 -5.000000
v 1.000000 0.000000 -1.000000
v 5.000000 0.000000 -1.000000
v 5.000000 0.000000 0.000000
v 0.000000 0.000000 0.000000
v 0.000000 1.000000 0.000000
v 0.000000 1.000000 -5.000000
v 0.000000 0.000000 -5.000000
v 0.000000 0.000000 0.000000
v 0.000000 1.000000 -5.000000
v 1.000000 1.000000 -5.000000
v 1.000000 0.000000 -5.000000
v 0.000000 0.000000 -5.000000
v 1.000000 1.000000 -5.000000
v 1.000000 1.000000 -1.000000
v 1.000000 0.000000 -1.000000
v 1.000000 0.000000 -5.000000
v 5.000000 0.000000 -1.000000
v 1.000000 0.000000 -1.000000
v 1.000000 1.000000 -1.000000
v 5.000000 1.000000 -1.000000
vt 0.373924 0.000097
vt 0.750325 0.000017
vt 0.625354 1.000000
vt -0.252151 0.000000
vt 0.125796 0.000000
vt 0.999980 0.125410
vt 0.499120 0.125332
vt 0.625354 0.874929
vt 1.123110 0.999413
vt 0.499991 0.874879
vt 0.624612 0.874862
vt 0.624629 0.999482
vt 0.500009 0.999499
vt 0.125779 0.624529
vt 0.250685 0.624533
vt 0.250698 0.124909
vt 0.750322 0.124922
vt -0.252171 0.125215
vt 0.373905 0.125313
vt 0.125071 0.874929
vt 1.000000 0.000195
vt 1.123092 0.874793
vt 0.125071 0.374646
vt 0.000000 0.374646
vt 0.499140 0.000117
vt -0.123110 0.874965
vt 0.000000 1.000000
vt -0.123093 0.999585
vn 0.000000 0.000000 1.000000
vn 0.000000 0.000000 1.000000
vn 0.000000 0.000000 1.000000
vn 0.000000 0.000000 1.000000
vn 1.000000 0.000000 0.000000
vn 1.000000 0.000000 0.000000
vn 1.000000 0.000000 0.000000
vn 1.000000 0.000000 0.000000
vn 0.000000 1.000000 0.000000
vn 0.000000 1.000000 0.000000
vn 0.000000 1.000000 0.000000
vn 0.000000 1.000000 0.000000
vn 0.000000 1.000000 0.000000
vn 0.000000 1.000000 0.000000
vn 0.000000 -1.000000 0.000000
vn 0.000000 -1.000000 0.000000
vn 0.000000 -1.000000 0.000000
vn 0.000000 -1.000000 0.000000
vn 0.000000 -1.000000 0.000000
vn 0.000000 -1.000000 0.000000
vn -1.000000 0.000000 0.000000
vn -1.000000 0.000000 0.000000
vn -1.000000 0.000000 0.000000
vn -1.000000 0.000000 0.000000
vn 0.000000 0.000000 -1.000000
vn 0.000000 0.000000 -1.000000
vn 0.000000 0.000000 -1.000000
vn 0.000000 0.000000 -1.000000
vn 1.000000 0.000000 0.000000
vn 1.000000 0.000000 0.000000
vn 1.000000 0.000000 0.000000
vn 1.000000 0.000000 0.000000
vn 0.000000 0.000000 -1.000000
vn 0.000000 0.000000 -1.000000
vn 0.000000 0.000000 -1.000000
vn 0.000000 0.000000 -1.000000
usemtl Tex_Checkered
f 3/19/3 4/18/4 1/4/1
f 3/19/3 1/4/1 2/1/2
f 8/19/8 5/1/5 7/7/7
f 5/1/5 6/25/6 7/7/7
f 13/17/13 14/16/14 12/2/12
f 10/14/10 11/5/11 14/16/14
f 14/16/14 9/15/9 10/14/10
f 11/5/11 12/2/12 14/16/14
f 17/20/17 19/3/19 20/27/20
f 15/24/15 17/20/17 20/27/20
f 17/20/17 15/24/15 16/23/16
f 19/3/19 17/20/17 18/8/18
f 23/13/23 24/28/24 21/26/21
f 21/26/21 22/10/22 23/13/23
f 27/12/27 28/13/28 25/10/25
f 27/12/27 25/10/25 26/11/26
f 31/9/31 29/11/29 30/22/30
f 29/11/29 31/9/31 32/12/32
f 35/6/35 33/25/33 34/21/34
f 33/25/33 35/6/35 36/7/36
