# This file uses centimeters as units for non-parametric coordinates.

mtllib Ramp_2.mtl
g default
v 0.045532 0.808006 0.000000
v 5.045532 0.808006 0.000000
v 0.045532 3.308014 -5.000000
v 5.045532 3.308014 -5.000000
v 0.045532 0.808006 -5.000000
v 5.045532 0.808006 -5.000000
vt 0.626694 0.000000
vt -0.000592 0.000000
vt 0.000000 0.687234
vt 0.779868 0.625804
vt 0.000000 0.375811
vt 0.625533 1.000000
vt 0.220132 0.000000
vt 0.624189 1.000000
vt 0.625393 0.000000
vt 0.625393 0.312993
vt 0.000000 0.000000
vt 0.000000 0.313347
vt 0.000000 1.000000
vt 0.624189 0.375811
vt 0.000000 1.000000
vt 0.220132 0.625804
vt 0.779868 0.000000
vt 0.625533 0.687234
vn 0.000000 0.000000 -1.000000
vn 0.000000 0.000000 -1.000000
vn 0.000000 0.000000 -1.000000
vn 0.000000 0.000000 -1.000000
vn 0.000000 -1.000000 0.000000
vn 0.000000 -1.000000 0.000000
vn 0.000000 -1.000000 0.000000
vn 0.000000 -1.000000 0.000000
vn -1.000000 0.000000 0.000000
vn -1.000000 0.000000 0.000000
vn -1.000000 0.000000 0.000000
vn 1.000000 0.000000 0.000000
vn 1.000000 0.000000 0.000000
vn 1.000000 0.000000 0.000000
vn 0.000000 0.894427 0.447215
vn 0.000000 0.894427 0.447215
vn 0.000000 0.894427 0.447215
vn 0.000000 0.894427 0.447215
s off
g Ramp_2
usemtl lambert6SG
f 3/3/1 4/18/2 6/6/3 5/13/4
f 5/5/5 6/14/6 2/8/7 1/15/8
f 5/11/9 1/1/10 3/12/11
f 2/2/12 6/9/13 4/10/14
f 2/17/15 4/4/16 3/16/17 1/7/18
