# This file uses centimeters as units for non-parametric coordinates.

mtllib Ramp_3.mtl
g default
v 5.000000 0.000000 -5.000000
v 0.000000 0.000000 -5.000000
v 5.000000 1.000000 -5.000000
v 0.000000 1.000000 -5.000000
v 5.000000 0.000000 0.000000
v 0.000000 0.000000 0.000000
vt 0.625754 -0.000780
vt 0.999952 1.001438
vt -0.000000 0.380750
vt 0.000001 0.124734
vt 0.624145 0.375860
vt 0.622554 1.000000
vt 0.000005 0.375860
vt 0.000005 1.000000
vt 0.623728 0.000296
vt -0.001319 -0.000780
vt -0.000000 1.000000
vt 0.875212 0.377740
vt 0.622554 0.380750
vt 0.000060 0.000000
vt 0.875212 1.001438
vt 0.999952 0.377740
vt 0.625754 0.124635
vt 0.624145 1.000000
vn 0.000000 0.000000 -1.000000
vn 0.000000 0.000000 -1.000000
vn 0.000000 0.000000 -1.000000
vn 0.000000 0.000000 -1.000000
vn 0.000000 -1.000000 0.000000
vn 0.000000 -1.000000 0.000000
vn 0.000000 -1.000000 0.000000
vn 0.000000 -1.000000 0.000000
vn -1.000000 0.000000 0.000000
vn -1.000000 0.000000 0.000000
vn -1.000000 0.000000 0.000000
vn 1.000000 0.000000 0.000000
vn 1.000000 0.000000 0.000000
vn 1.000000 0.000000 0.000000
vn 0.000000 0.980581 0.196116
vn 0.000000 0.980581 0.196116
vn 0.000000 0.980581 0.196116
vn 0.000000 0.980581 0.196116
s off
g Ramp_3
usemtl lambert6SG
f 1/16/1 2/2/2 4/15/3 3/12/4
f 5/5/5 6/18/6 2/8/7 1/7/8
f 2/14/9 6/9/10 4/4/11
f 5/10/12 1/1/13 3/17/14
f 4/13/15 6/6/16 5/11/17 3/3/18
