# This file uses centimeters as units for non-parametric coordinates.

mtllib Wall.mtl
g default
v 0.000000 0.000000 0.000000
v 10.000000 0.000000 0.000000
v 10.000000 0.000000 -1.000000
v 0.000000 0.000000 -1.000000
v 0.000000 1.000000 0.000000
v 10.000000 1.000000 0.000000
v 10.000000 1.000000 -1.000000
v 0.000000 1.000000 -1.000000
vt 1.000000 0.000000
vt 0.000000 0.375358
vt 0.000000 0.000000
vt 0.000000 0.500000
vt 0.877146 0.000000
vt 1.000000 0.122854
vt 1.246422 0.749285
vt 0.000000 0.250715
vt 0.000000 0.124393
vt 0.000000 0.624642
vt 0.877146 0.122854
vt 0.000000 0.749285
vt 1.246422 0.250715
vt 1.246422 0.375358
vt 1.246422 0.624642
vt 1.246422 0.500000
vt 0.124393 0.124393
vt 0.124393 0.000000
vn 0.000000 1.000000 0.000000
vn 0.000000 1.000000 0.000000
vn 0.000000 1.000000 0.000000
vn 0.000000 1.000000 0.000000
vn 0.000000 -1.000000 0.000000
vn 0.000000 -1.000000 0.000000
vn 0.000000 -1.000000 0.000000
vn 0.000000 -1.000000 0.000000
vn 0.000000 0.000000 1.000000
vn 0.000000 0.000000 1.000000
vn 0.000000 0.000000 1.000000
vn 0.000000 0.000000 1.000000
vn -1.000000 0.000000 0.000000
vn -1.000000 0.000000 0.000000
vn -1.000000 0.000000 0.000000
vn -1.000000 0.000000 0.000000
vn 0.000000 0.000000 -1.000000
vn 0.000000 0.000000 -1.000000
vn 0.000000 0.000000 -1.000000
vn 0.000000 0.000000 -1.000000
vn 1.000000 0.000000 0.000000
vn 1.000000 0.000000 0.000000
vn 1.000000 0.000000 0.000000
vn 1.000000 0.000000 0.000000
s off
g Wall
usemtl lambert6SG
f 7/10/1 8/15/2 5/7/3 6/12/4
f 4/16/5 3/4/6 2/2/7 1/14/8
f 6/8/9 5/13/10 1/14/11 2/2/12
f 4/5/13 1/1/14 5/6/15 8/11/16
f 3/4/17 4/16/18 8/15/19 7/10/20
f 2/3/21 3/18/22 7/17/23 6/9/24
